<mxfile host="app.diagrams.net" modified="2023-05-22T23:42:43.818Z" agent="Mozilla/5.0 (Windows NT 10.0; Win64; x64) AppleWebKit/537.36 (KHTML, like Gecko) Chrome/113.0.0.0 Safari/537.36" etag="VpkISyugI7kAH26Heg2Y" version="21.2.1" type="device">
  <diagram name="Page-1" id="YA8auVT5l-mC5QDapxrh">
    <mxGraphModel dx="3149" dy="1091" grid="1" gridSize="10" guides="1" tooltips="1" connect="1" arrows="1" fold="1" page="1" pageScale="1" pageWidth="1100" pageHeight="850" math="0" shadow="0">
      <root>
        <mxCell id="0" />
        <mxCell id="1" parent="0" />
        <mxCell id="5R4qzBZSKDGuNzsZwvef-4" value="&lt;p style=&quot;margin:0px;margin-top:4px;text-align:center;&quot;&gt;&lt;i&gt;&amp;lt;&amp;lt;Interface&amp;gt;&amp;gt;&lt;/i&gt;&lt;br&gt;&lt;b&gt;Drawable&lt;/b&gt;&lt;/p&gt;&lt;hr size=&quot;1&quot;&gt;&lt;p style=&quot;margin:0px;margin-left:4px;&quot;&gt;&lt;br&gt;&lt;/p&gt;&lt;hr size=&quot;1&quot;&gt;&lt;p style=&quot;margin:0px;margin-left:4px;&quot;&gt;+ draw(): void&lt;br&gt;+ update(): void&lt;/p&gt;" style="verticalAlign=top;align=left;overflow=fill;fontSize=12;fontFamily=Helvetica;html=1;whiteSpace=wrap;" vertex="1" parent="1">
          <mxGeometry x="290" y="45" width="190" height="110" as="geometry" />
        </mxCell>
        <mxCell id="5R4qzBZSKDGuNzsZwvef-5" value="&lt;i&gt;CelestialBody&lt;/i&gt;" style="swimlane;fontStyle=1;align=center;verticalAlign=top;childLayout=stackLayout;horizontal=1;startSize=26;horizontalStack=0;resizeParent=1;resizeParentMax=0;resizeLast=0;collapsible=1;marginBottom=0;whiteSpace=wrap;html=1;" vertex="1" parent="1">
          <mxGeometry x="190" y="205" width="190" height="108" as="geometry" />
        </mxCell>
        <mxCell id="5R4qzBZSKDGuNzsZwvef-6" value="# radius: float&lt;br&gt;# spinVelocity: float&lt;br&gt;# spinAngle: float&lt;br&gt;# light_Ambient_Diffuse: float[4]" style="text;strokeColor=none;fillColor=none;align=left;verticalAlign=top;spacingLeft=4;spacingRight=4;overflow=hidden;rotatable=0;points=[[0,0.5],[1,0.5]];portConstraint=eastwest;whiteSpace=wrap;html=1;" vertex="1" parent="5R4qzBZSKDGuNzsZwvef-5">
          <mxGeometry y="26" width="190" height="74" as="geometry" />
        </mxCell>
        <mxCell id="5R4qzBZSKDGuNzsZwvef-7" value="" style="line;strokeWidth=1;fillColor=none;align=left;verticalAlign=middle;spacingTop=-1;spacingLeft=3;spacingRight=3;rotatable=0;labelPosition=right;points=[];portConstraint=eastwest;strokeColor=inherit;" vertex="1" parent="5R4qzBZSKDGuNzsZwvef-5">
          <mxGeometry y="100" width="190" height="8" as="geometry" />
        </mxCell>
        <mxCell id="5R4qzBZSKDGuNzsZwvef-9" value="Planet" style="swimlane;fontStyle=1;align=center;verticalAlign=top;childLayout=stackLayout;horizontal=1;startSize=26;horizontalStack=0;resizeParent=1;resizeParentMax=0;resizeLast=0;collapsible=1;marginBottom=0;whiteSpace=wrap;html=1;" vertex="1" parent="1">
          <mxGeometry x="100" y="455" width="160" height="124" as="geometry" />
        </mxCell>
        <mxCell id="5R4qzBZSKDGuNzsZwvef-10" value="# orbitRadius: float&lt;br&gt;# orbitVelocity: float&lt;br&gt;# orbitAngle: float" style="text;strokeColor=none;fillColor=none;align=left;verticalAlign=top;spacingLeft=4;spacingRight=4;overflow=hidden;rotatable=0;points=[[0,0.5],[1,0.5]];portConstraint=eastwest;whiteSpace=wrap;html=1;" vertex="1" parent="5R4qzBZSKDGuNzsZwvef-9">
          <mxGeometry y="26" width="160" height="64" as="geometry" />
        </mxCell>
        <mxCell id="5R4qzBZSKDGuNzsZwvef-11" value="" style="line;strokeWidth=1;fillColor=none;align=left;verticalAlign=middle;spacingTop=-1;spacingLeft=3;spacingRight=3;rotatable=0;labelPosition=right;points=[];portConstraint=eastwest;strokeColor=inherit;" vertex="1" parent="5R4qzBZSKDGuNzsZwvef-9">
          <mxGeometry y="90" width="160" height="8" as="geometry" />
        </mxCell>
        <mxCell id="5R4qzBZSKDGuNzsZwvef-12" value="+ All Args Constructor" style="text;strokeColor=none;fillColor=none;align=left;verticalAlign=top;spacingLeft=4;spacingRight=4;overflow=hidden;rotatable=0;points=[[0,0.5],[1,0.5]];portConstraint=eastwest;whiteSpace=wrap;html=1;" vertex="1" parent="5R4qzBZSKDGuNzsZwvef-9">
          <mxGeometry y="98" width="160" height="26" as="geometry" />
        </mxCell>
        <mxCell id="5R4qzBZSKDGuNzsZwvef-13" value="Star" style="swimlane;fontStyle=1;align=center;verticalAlign=top;childLayout=stackLayout;horizontal=1;startSize=26;horizontalStack=0;resizeParent=1;resizeParentMax=0;resizeLast=0;collapsible=1;marginBottom=0;whiteSpace=wrap;html=1;" vertex="1" parent="1">
          <mxGeometry x="310" y="465" width="160" height="86" as="geometry" />
        </mxCell>
        <mxCell id="5R4qzBZSKDGuNzsZwvef-14" value="- lightID: GLenum" style="text;strokeColor=none;fillColor=none;align=left;verticalAlign=top;spacingLeft=4;spacingRight=4;overflow=hidden;rotatable=0;points=[[0,0.5],[1,0.5]];portConstraint=eastwest;whiteSpace=wrap;html=1;" vertex="1" parent="5R4qzBZSKDGuNzsZwvef-13">
          <mxGeometry y="26" width="160" height="26" as="geometry" />
        </mxCell>
        <mxCell id="5R4qzBZSKDGuNzsZwvef-15" value="" style="line;strokeWidth=1;fillColor=none;align=left;verticalAlign=middle;spacingTop=-1;spacingLeft=3;spacingRight=3;rotatable=0;labelPosition=right;points=[];portConstraint=eastwest;strokeColor=inherit;" vertex="1" parent="5R4qzBZSKDGuNzsZwvef-13">
          <mxGeometry y="52" width="160" height="8" as="geometry" />
        </mxCell>
        <mxCell id="5R4qzBZSKDGuNzsZwvef-16" value="+ All Args Constructor" style="text;strokeColor=none;fillColor=none;align=left;verticalAlign=top;spacingLeft=4;spacingRight=4;overflow=hidden;rotatable=0;points=[[0,0.5],[1,0.5]];portConstraint=eastwest;whiteSpace=wrap;html=1;" vertex="1" parent="5R4qzBZSKDGuNzsZwvef-13">
          <mxGeometry y="60" width="160" height="26" as="geometry" />
        </mxCell>
        <mxCell id="5R4qzBZSKDGuNzsZwvef-25" value="" style="endArrow=block;dashed=1;endFill=0;endSize=12;html=1;rounded=0;exitX=0.5;exitY=0;exitDx=0;exitDy=0;entryX=0.25;entryY=1;entryDx=0;entryDy=0;" edge="1" parent="1" source="5R4qzBZSKDGuNzsZwvef-5" target="5R4qzBZSKDGuNzsZwvef-4">
          <mxGeometry width="160" relative="1" as="geometry">
            <mxPoint x="240" y="465" as="sourcePoint" />
            <mxPoint x="380" y="155" as="targetPoint" />
          </mxGeometry>
        </mxCell>
        <mxCell id="5R4qzBZSKDGuNzsZwvef-26" value="Extends" style="endArrow=block;endSize=16;endFill=0;html=1;rounded=0;entryX=0.25;entryY=1;entryDx=0;entryDy=0;exitX=0.5;exitY=0;exitDx=0;exitDy=0;" edge="1" parent="1" source="5R4qzBZSKDGuNzsZwvef-9" target="5R4qzBZSKDGuNzsZwvef-5">
          <mxGeometry width="160" relative="1" as="geometry">
            <mxPoint x="470" y="335" as="sourcePoint" />
            <mxPoint x="630" y="335" as="targetPoint" />
          </mxGeometry>
        </mxCell>
        <mxCell id="5R4qzBZSKDGuNzsZwvef-27" value="Extends" style="endArrow=block;endSize=16;endFill=0;html=1;rounded=0;entryX=0.75;entryY=1;entryDx=0;entryDy=0;exitX=0.5;exitY=0;exitDx=0;exitDy=0;" edge="1" parent="1" source="5R4qzBZSKDGuNzsZwvef-13" target="5R4qzBZSKDGuNzsZwvef-5">
          <mxGeometry width="160" relative="1" as="geometry">
            <mxPoint x="190" y="465" as="sourcePoint" />
            <mxPoint x="315" y="323" as="targetPoint" />
          </mxGeometry>
        </mxCell>
        <mxCell id="5R4qzBZSKDGuNzsZwvef-28" value="SpaceFactory" style="swimlane;fontStyle=1;align=center;verticalAlign=top;childLayout=stackLayout;horizontal=1;startSize=26;horizontalStack=0;resizeParent=1;resizeParentMax=0;resizeLast=0;collapsible=1;marginBottom=0;whiteSpace=wrap;html=1;" vertex="1" parent="1">
          <mxGeometry x="-150" y="235" width="270" height="86" as="geometry" />
        </mxCell>
        <mxCell id="5R4qzBZSKDGuNzsZwvef-29" value="+ field: type" style="text;strokeColor=none;fillColor=none;align=left;verticalAlign=top;spacingLeft=4;spacingRight=4;overflow=hidden;rotatable=0;points=[[0,0.5],[1,0.5]];portConstraint=eastwest;whiteSpace=wrap;html=1;" vertex="1" parent="5R4qzBZSKDGuNzsZwvef-28">
          <mxGeometry y="26" width="270" height="26" as="geometry" />
        </mxCell>
        <mxCell id="5R4qzBZSKDGuNzsZwvef-30" value="" style="line;strokeWidth=1;fillColor=none;align=left;verticalAlign=middle;spacingTop=-1;spacingLeft=3;spacingRight=3;rotatable=0;labelPosition=right;points=[];portConstraint=eastwest;strokeColor=inherit;" vertex="1" parent="5R4qzBZSKDGuNzsZwvef-28">
          <mxGeometry y="52" width="270" height="8" as="geometry" />
        </mxCell>
        <mxCell id="5R4qzBZSKDGuNzsZwvef-31" value="+ create(CelestialBodyEnum): CelestialBody *" style="text;strokeColor=none;fillColor=none;align=left;verticalAlign=top;spacingLeft=4;spacingRight=4;overflow=hidden;rotatable=0;points=[[0,0.5],[1,0.5]];portConstraint=eastwest;whiteSpace=wrap;html=1;" vertex="1" parent="5R4qzBZSKDGuNzsZwvef-28">
          <mxGeometry y="60" width="270" height="26" as="geometry" />
        </mxCell>
        <mxCell id="5R4qzBZSKDGuNzsZwvef-32" value="Use" style="endArrow=open;endSize=12;dashed=1;html=1;rounded=0;exitX=1;exitY=0.25;exitDx=0;exitDy=0;entryX=0;entryY=0.25;entryDx=0;entryDy=0;" edge="1" parent="1" source="5R4qzBZSKDGuNzsZwvef-28" target="5R4qzBZSKDGuNzsZwvef-5">
          <mxGeometry width="160" relative="1" as="geometry">
            <mxPoint x="470" y="335" as="sourcePoint" />
            <mxPoint x="150" y="255" as="targetPoint" />
          </mxGeometry>
        </mxCell>
        <mxCell id="5R4qzBZSKDGuNzsZwvef-33" value="&lt;p style=&quot;margin:0px;margin-top:4px;text-align:center;&quot;&gt;&lt;i&gt;&amp;lt;&amp;lt;Interface&amp;gt;&amp;gt;&lt;/i&gt;&lt;br&gt;&lt;b&gt;Director&lt;/b&gt;&lt;/p&gt;&lt;hr size=&quot;1&quot;&gt;&lt;p style=&quot;margin:0px;margin-left:4px;&quot;&gt;&lt;br&gt;&lt;/p&gt;&lt;hr size=&quot;1&quot;&gt;&lt;p style=&quot;margin:0px;margin-left:4px;&quot;&gt;+ pointCamera(): void&lt;br&gt;&lt;/p&gt;" style="verticalAlign=top;align=left;overflow=fill;fontSize=12;fontFamily=Helvetica;html=1;whiteSpace=wrap;" vertex="1" parent="1">
          <mxGeometry x="690" y="305" width="190" height="100" as="geometry" />
        </mxCell>
        <mxCell id="5R4qzBZSKDGuNzsZwvef-36" value="CompositPlanet" style="swimlane;fontStyle=1;align=center;verticalAlign=top;childLayout=stackLayout;horizontal=1;startSize=26;horizontalStack=0;resizeParent=1;resizeParentMax=0;resizeLast=0;collapsible=1;marginBottom=0;whiteSpace=wrap;html=1;" vertex="1" parent="1">
          <mxGeometry x="40" y="675" width="210" height="130" as="geometry" />
        </mxCell>
        <mxCell id="5R4qzBZSKDGuNzsZwvef-37" value="- surroundings: vector&amp;lt;Planet&amp;gt;" style="text;strokeColor=none;fillColor=none;align=left;verticalAlign=top;spacingLeft=4;spacingRight=4;overflow=hidden;rotatable=0;points=[[0,0.5],[1,0.5]];portConstraint=eastwest;whiteSpace=wrap;html=1;" vertex="1" parent="5R4qzBZSKDGuNzsZwvef-36">
          <mxGeometry y="26" width="210" height="34" as="geometry" />
        </mxCell>
        <mxCell id="5R4qzBZSKDGuNzsZwvef-38" value="" style="line;strokeWidth=1;fillColor=none;align=left;verticalAlign=middle;spacingTop=-1;spacingLeft=3;spacingRight=3;rotatable=0;labelPosition=right;points=[];portConstraint=eastwest;strokeColor=inherit;" vertex="1" parent="5R4qzBZSKDGuNzsZwvef-36">
          <mxGeometry y="60" width="210" height="8" as="geometry" />
        </mxCell>
        <mxCell id="5R4qzBZSKDGuNzsZwvef-39" value="+ All Args Constructor&lt;br&gt;+ addSurrounding(Drawable *): void&lt;br&gt;+ addSurrounding(Drawable *): void" style="text;strokeColor=none;fillColor=none;align=left;verticalAlign=top;spacingLeft=4;spacingRight=4;overflow=hidden;rotatable=0;points=[[0,0.5],[1,0.5]];portConstraint=eastwest;whiteSpace=wrap;html=1;" vertex="1" parent="5R4qzBZSKDGuNzsZwvef-36">
          <mxGeometry y="68" width="210" height="62" as="geometry" />
        </mxCell>
        <mxCell id="5R4qzBZSKDGuNzsZwvef-40" value="Extends" style="endArrow=block;endSize=16;endFill=0;html=1;rounded=0;entryX=0.481;entryY=1.077;entryDx=0;entryDy=0;exitX=0.5;exitY=0;exitDx=0;exitDy=0;entryPerimeter=0;" edge="1" parent="1" source="5R4qzBZSKDGuNzsZwvef-36" target="5R4qzBZSKDGuNzsZwvef-12">
          <mxGeometry width="160" relative="1" as="geometry">
            <mxPoint x="190" y="465" as="sourcePoint" />
            <mxPoint x="268" y="323" as="targetPoint" />
          </mxGeometry>
        </mxCell>
        <mxCell id="5R4qzBZSKDGuNzsZwvef-41" value="" style="endArrow=open;endFill=1;endSize=12;html=1;rounded=0;exitX=0;exitY=0.5;exitDx=0;exitDy=0;entryX=0;entryY=0.5;entryDx=0;entryDy=0;" edge="1" parent="1" source="5R4qzBZSKDGuNzsZwvef-37" target="5R4qzBZSKDGuNzsZwvef-10">
          <mxGeometry width="160" relative="1" as="geometry">
            <mxPoint x="180" y="585" as="sourcePoint" />
            <mxPoint x="340" y="585" as="targetPoint" />
            <Array as="points">
              <mxPoint x="-30" y="718" />
              <mxPoint x="-30" y="515" />
            </Array>
          </mxGeometry>
        </mxCell>
        <mxCell id="5R4qzBZSKDGuNzsZwvef-42" value="Use" style="endArrow=open;endSize=12;dashed=1;html=1;rounded=0;entryX=0;entryY=0.25;entryDx=0;entryDy=0;exitX=0;exitY=0.5;exitDx=0;exitDy=0;" edge="1" parent="1" source="5R4qzBZSKDGuNzsZwvef-39">
          <mxGeometry width="160" relative="1" as="geometry">
            <mxPoint x="10" y="775" as="sourcePoint" />
            <mxPoint x="290" y="74.5" as="targetPoint" />
            <Array as="points">
              <mxPoint x="-200" y="775" />
              <mxPoint x="-200" y="75" />
            </Array>
          </mxGeometry>
        </mxCell>
        <mxCell id="5R4qzBZSKDGuNzsZwvef-43" value="StaticCamera" style="swimlane;fontStyle=1;align=center;verticalAlign=top;childLayout=stackLayout;horizontal=1;startSize=26;horizontalStack=0;resizeParent=1;resizeParentMax=0;resizeLast=0;collapsible=1;marginBottom=0;whiteSpace=wrap;html=1;" vertex="1" parent="1">
          <mxGeometry x="770" y="485" width="160" height="124" as="geometry" />
        </mxCell>
        <mxCell id="5R4qzBZSKDGuNzsZwvef-44" value="- eye: float[3]&lt;br&gt;- center: float[3]&lt;br&gt;- up: float[3]" style="text;strokeColor=none;fillColor=none;align=left;verticalAlign=top;spacingLeft=4;spacingRight=4;overflow=hidden;rotatable=0;points=[[0,0.5],[1,0.5]];portConstraint=eastwest;whiteSpace=wrap;html=1;" vertex="1" parent="5R4qzBZSKDGuNzsZwvef-43">
          <mxGeometry y="26" width="160" height="64" as="geometry" />
        </mxCell>
        <mxCell id="5R4qzBZSKDGuNzsZwvef-45" value="" style="line;strokeWidth=1;fillColor=none;align=left;verticalAlign=middle;spacingTop=-1;spacingLeft=3;spacingRight=3;rotatable=0;labelPosition=right;points=[];portConstraint=eastwest;strokeColor=inherit;" vertex="1" parent="5R4qzBZSKDGuNzsZwvef-43">
          <mxGeometry y="90" width="160" height="8" as="geometry" />
        </mxCell>
        <mxCell id="5R4qzBZSKDGuNzsZwvef-46" value="+ All Args Constructor" style="text;strokeColor=none;fillColor=none;align=left;verticalAlign=top;spacingLeft=4;spacingRight=4;overflow=hidden;rotatable=0;points=[[0,0.5],[1,0.5]];portConstraint=eastwest;whiteSpace=wrap;html=1;" vertex="1" parent="5R4qzBZSKDGuNzsZwvef-43">
          <mxGeometry y="98" width="160" height="26" as="geometry" />
        </mxCell>
        <mxCell id="5R4qzBZSKDGuNzsZwvef-47" value="SpaceShip" style="swimlane;fontStyle=1;align=center;verticalAlign=top;childLayout=stackLayout;horizontal=1;startSize=26;horizontalStack=0;resizeParent=1;resizeParentMax=0;resizeLast=0;collapsible=1;marginBottom=0;whiteSpace=wrap;html=1;" vertex="1" parent="1">
          <mxGeometry x="530" y="485" width="160" height="190" as="geometry" />
        </mxCell>
        <mxCell id="5R4qzBZSKDGuNzsZwvef-48" value="- x: float&lt;br&gt;- z: float&lt;br&gt;- angle: float" style="text;strokeColor=none;fillColor=none;align=left;verticalAlign=top;spacingLeft=4;spacingRight=4;overflow=hidden;rotatable=0;points=[[0,0.5],[1,0.5]];portConstraint=eastwest;whiteSpace=wrap;html=1;" vertex="1" parent="5R4qzBZSKDGuNzsZwvef-47">
          <mxGeometry y="26" width="160" height="64" as="geometry" />
        </mxCell>
        <mxCell id="5R4qzBZSKDGuNzsZwvef-49" value="" style="line;strokeWidth=1;fillColor=none;align=left;verticalAlign=middle;spacingTop=-1;spacingLeft=3;spacingRight=3;rotatable=0;labelPosition=right;points=[];portConstraint=eastwest;strokeColor=inherit;" vertex="1" parent="5R4qzBZSKDGuNzsZwvef-47">
          <mxGeometry y="90" width="160" height="8" as="geometry" />
        </mxCell>
        <mxCell id="5R4qzBZSKDGuNzsZwvef-50" value="+ SpaceShip(x, z, angle)&lt;br&gt;+ throttle(): void&lt;br&gt;+ reverse(): void&lt;br&gt;+ steerRight(): void&lt;br&gt;+ steerLeft(): void" style="text;strokeColor=none;fillColor=none;align=left;verticalAlign=top;spacingLeft=4;spacingRight=4;overflow=hidden;rotatable=0;points=[[0,0.5],[1,0.5]];portConstraint=eastwest;whiteSpace=wrap;html=1;" vertex="1" parent="5R4qzBZSKDGuNzsZwvef-47">
          <mxGeometry y="98" width="160" height="92" as="geometry" />
        </mxCell>
        <mxCell id="5R4qzBZSKDGuNzsZwvef-51" value="" style="endArrow=block;dashed=1;endFill=0;endSize=12;html=1;rounded=0;entryX=0.75;entryY=1;entryDx=0;entryDy=0;exitX=0.25;exitY=0;exitDx=0;exitDy=0;" edge="1" parent="1" source="5R4qzBZSKDGuNzsZwvef-47" target="5R4qzBZSKDGuNzsZwvef-4">
          <mxGeometry width="160" relative="1" as="geometry">
            <mxPoint x="260" y="445" as="sourcePoint" />
            <mxPoint x="420" y="445" as="targetPoint" />
          </mxGeometry>
        </mxCell>
        <mxCell id="5R4qzBZSKDGuNzsZwvef-52" value="" style="endArrow=block;dashed=1;endFill=0;endSize=12;html=1;rounded=0;exitX=0.75;exitY=0;exitDx=0;exitDy=0;entryX=0.25;entryY=1;entryDx=0;entryDy=0;" edge="1" parent="1" source="5R4qzBZSKDGuNzsZwvef-47" target="5R4qzBZSKDGuNzsZwvef-33">
          <mxGeometry width="160" relative="1" as="geometry">
            <mxPoint x="620" y="495" as="sourcePoint" />
            <mxPoint x="790" y="405" as="targetPoint" />
          </mxGeometry>
        </mxCell>
        <mxCell id="5R4qzBZSKDGuNzsZwvef-53" value="" style="endArrow=block;dashed=1;endFill=0;endSize=12;html=1;rounded=0;entryX=0.75;entryY=1;entryDx=0;entryDy=0;exitX=0.5;exitY=0;exitDx=0;exitDy=0;" edge="1" parent="1" source="5R4qzBZSKDGuNzsZwvef-43" target="5R4qzBZSKDGuNzsZwvef-33">
          <mxGeometry width="160" relative="1" as="geometry">
            <mxPoint x="630" y="505" as="sourcePoint" />
            <mxPoint x="383" y="375" as="targetPoint" />
          </mxGeometry>
        </mxCell>
        <mxCell id="5R4qzBZSKDGuNzsZwvef-54" value="ViewPort" style="swimlane;fontStyle=1;align=center;verticalAlign=top;childLayout=stackLayout;horizontal=1;startSize=26;horizontalStack=0;resizeParent=1;resizeParentMax=0;resizeLast=0;collapsible=1;marginBottom=0;whiteSpace=wrap;html=1;" vertex="1" parent="1">
          <mxGeometry x="1030" y="285" width="270" height="190" as="geometry" />
        </mxCell>
        <mxCell id="5R4qzBZSKDGuNzsZwvef-55" value="- xvmin: float&lt;br&gt;- yvmin: float&lt;br&gt;- width: float&lt;br&gt;- height: float&lt;br&gt;- director: Director *" style="text;strokeColor=none;fillColor=none;align=left;verticalAlign=top;spacingLeft=4;spacingRight=4;overflow=hidden;rotatable=0;points=[[0,0.5],[1,0.5]];portConstraint=eastwest;whiteSpace=wrap;html=1;" vertex="1" parent="5R4qzBZSKDGuNzsZwvef-54">
          <mxGeometry y="26" width="270" height="84" as="geometry" />
        </mxCell>
        <mxCell id="5R4qzBZSKDGuNzsZwvef-56" value="" style="line;strokeWidth=1;fillColor=none;align=left;verticalAlign=middle;spacingTop=-1;spacingLeft=3;spacingRight=3;rotatable=0;labelPosition=right;points=[];portConstraint=eastwest;strokeColor=inherit;" vertex="1" parent="5R4qzBZSKDGuNzsZwvef-54">
          <mxGeometry y="110" width="270" height="8" as="geometry" />
        </mxCell>
        <mxCell id="5R4qzBZSKDGuNzsZwvef-57" value="+ All Args Constructor&lt;br&gt;+ view(): void&lt;br&gt;+ update(xvmin, yvmin, width, height): void:&amp;nbsp;" style="text;strokeColor=none;fillColor=none;align=left;verticalAlign=top;spacingLeft=4;spacingRight=4;overflow=hidden;rotatable=0;points=[[0,0.5],[1,0.5]];portConstraint=eastwest;whiteSpace=wrap;html=1;" vertex="1" parent="5R4qzBZSKDGuNzsZwvef-54">
          <mxGeometry y="118" width="270" height="72" as="geometry" />
        </mxCell>
        <mxCell id="5R4qzBZSKDGuNzsZwvef-58" value="" style="endArrow=open;endFill=1;endSize=12;html=1;rounded=0;entryX=1;entryY=0.5;entryDx=0;entryDy=0;exitX=0;exitY=0.5;exitDx=0;exitDy=0;" edge="1" parent="1" source="5R4qzBZSKDGuNzsZwvef-55" target="5R4qzBZSKDGuNzsZwvef-33">
          <mxGeometry width="160" relative="1" as="geometry">
            <mxPoint x="610" y="545" as="sourcePoint" />
            <mxPoint x="770" y="545" as="targetPoint" />
          </mxGeometry>
        </mxCell>
        <mxCell id="5R4qzBZSKDGuNzsZwvef-59" value="World" style="swimlane;fontStyle=1;align=center;verticalAlign=top;childLayout=stackLayout;horizontal=1;startSize=26;horizontalStack=0;resizeParent=1;resizeParentMax=0;resizeLast=0;collapsible=1;marginBottom=0;whiteSpace=wrap;html=1;" vertex="1" parent="1">
          <mxGeometry x="710" y="45" width="250" height="130" as="geometry" />
        </mxCell>
        <mxCell id="5R4qzBZSKDGuNzsZwvef-60" value="- object: vector&amp;lt;Drawable *&amp;gt;" style="text;strokeColor=none;fillColor=none;align=left;verticalAlign=top;spacingLeft=4;spacingRight=4;overflow=hidden;rotatable=0;points=[[0,0.5],[1,0.5]];portConstraint=eastwest;whiteSpace=wrap;html=1;" vertex="1" parent="5R4qzBZSKDGuNzsZwvef-59">
          <mxGeometry y="26" width="250" height="26" as="geometry" />
        </mxCell>
        <mxCell id="5R4qzBZSKDGuNzsZwvef-61" value="" style="line;strokeWidth=1;fillColor=none;align=left;verticalAlign=middle;spacingTop=-1;spacingLeft=3;spacingRight=3;rotatable=0;labelPosition=right;points=[];portConstraint=eastwest;strokeColor=inherit;" vertex="1" parent="5R4qzBZSKDGuNzsZwvef-59">
          <mxGeometry y="52" width="250" height="8" as="geometry" />
        </mxCell>
        <mxCell id="5R4qzBZSKDGuNzsZwvef-62" value="+ draw(): void&lt;br&gt;+ tick(): void&lt;br&gt;+ addObject(Drawable *): void&lt;br&gt;+ addObjects(vector&amp;lt;Drawble *&amp;gt;): void" style="text;strokeColor=none;fillColor=none;align=left;verticalAlign=top;spacingLeft=4;spacingRight=4;overflow=hidden;rotatable=0;points=[[0,0.5],[1,0.5]];portConstraint=eastwest;whiteSpace=wrap;html=1;" vertex="1" parent="5R4qzBZSKDGuNzsZwvef-59">
          <mxGeometry y="60" width="250" height="70" as="geometry" />
        </mxCell>
        <mxCell id="5R4qzBZSKDGuNzsZwvef-65" value="" style="endArrow=diamondThin;endFill=1;endSize=24;html=1;rounded=0;entryX=0;entryY=0.5;entryDx=0;entryDy=0;exitX=1;exitY=0.5;exitDx=0;exitDy=0;" edge="1" parent="1" source="5R4qzBZSKDGuNzsZwvef-4" target="5R4qzBZSKDGuNzsZwvef-60">
          <mxGeometry width="160" relative="1" as="geometry">
            <mxPoint x="680" y="315" as="sourcePoint" />
            <mxPoint x="840" y="315" as="targetPoint" />
          </mxGeometry>
        </mxCell>
        <mxCell id="5R4qzBZSKDGuNzsZwvef-66" value="Renderer" style="swimlane;fontStyle=1;align=center;verticalAlign=top;childLayout=stackLayout;horizontal=1;startSize=26;horizontalStack=0;resizeParent=1;resizeParentMax=0;resizeLast=0;collapsible=1;marginBottom=0;whiteSpace=wrap;html=1;" vertex="1" parent="1">
          <mxGeometry x="1160" y="40" width="160" height="120" as="geometry" />
        </mxCell>
        <mxCell id="5R4qzBZSKDGuNzsZwvef-67" value="- world: World *&lt;br&gt;- viewport: ViewPort *" style="text;strokeColor=none;fillColor=none;align=left;verticalAlign=top;spacingLeft=4;spacingRight=4;overflow=hidden;rotatable=0;points=[[0,0.5],[1,0.5]];portConstraint=eastwest;whiteSpace=wrap;html=1;" vertex="1" parent="5R4qzBZSKDGuNzsZwvef-66">
          <mxGeometry y="26" width="160" height="44" as="geometry" />
        </mxCell>
        <mxCell id="5R4qzBZSKDGuNzsZwvef-68" value="" style="line;strokeWidth=1;fillColor=none;align=left;verticalAlign=middle;spacingTop=-1;spacingLeft=3;spacingRight=3;rotatable=0;labelPosition=right;points=[];portConstraint=eastwest;strokeColor=inherit;" vertex="1" parent="5R4qzBZSKDGuNzsZwvef-66">
          <mxGeometry y="70" width="160" height="8" as="geometry" />
        </mxCell>
        <mxCell id="5R4qzBZSKDGuNzsZwvef-69" value="+ All Args Constructor&lt;br&gt;+ render(): void" style="text;strokeColor=none;fillColor=none;align=left;verticalAlign=top;spacingLeft=4;spacingRight=4;overflow=hidden;rotatable=0;points=[[0,0.5],[1,0.5]];portConstraint=eastwest;whiteSpace=wrap;html=1;" vertex="1" parent="5R4qzBZSKDGuNzsZwvef-66">
          <mxGeometry y="78" width="160" height="42" as="geometry" />
        </mxCell>
        <mxCell id="5R4qzBZSKDGuNzsZwvef-71" value="" style="endArrow=open;endFill=1;endSize=12;html=1;rounded=0;entryX=1;entryY=0.5;entryDx=0;entryDy=0;exitX=0;exitY=0.5;exitDx=0;exitDy=0;" edge="1" parent="1" source="5R4qzBZSKDGuNzsZwvef-67" target="5R4qzBZSKDGuNzsZwvef-60">
          <mxGeometry width="160" relative="1" as="geometry">
            <mxPoint x="910" y="255" as="sourcePoint" />
            <mxPoint x="1070" y="255" as="targetPoint" />
          </mxGeometry>
        </mxCell>
        <mxCell id="5R4qzBZSKDGuNzsZwvef-72" value="" style="endArrow=open;endFill=1;endSize=12;html=1;rounded=0;entryX=0.5;entryY=0;entryDx=0;entryDy=0;exitX=0.5;exitY=1;exitDx=0;exitDy=0;" edge="1" parent="1" source="5R4qzBZSKDGuNzsZwvef-66" target="5R4qzBZSKDGuNzsZwvef-54">
          <mxGeometry width="160" relative="1" as="geometry">
            <mxPoint x="1230" y="185" as="sourcePoint" />
            <mxPoint x="970" y="94" as="targetPoint" />
          </mxGeometry>
        </mxCell>
      </root>
    </mxGraphModel>
  </diagram>
</mxfile>
